<mxfile host="app.diagrams.net" agent="Mozilla/5.0 (Windows NT 10.0; Win64; x64) AppleWebKit/537.36 (KHTML, like Gecko) Chrome/129.0.0.0 Safari/537.36 Edg/129.0.0.0" version="24.7.16">
  <diagram name="第 1 页" id="7JJu4KsOGx1DoxlqVqsf">
    <mxGraphModel dx="1024" dy="437" grid="1" gridSize="10" guides="1" tooltips="1" connect="1" arrows="1" fold="1" page="1" pageScale="1" pageWidth="827" pageHeight="1169" math="0" shadow="0">
      <root>
        <mxCell id="0" />
        <mxCell id="1" parent="0" />
        <mxCell id="Hv3OvngBfir_r2vrPVsW-1" value="" style="group" vertex="1" connectable="0" parent="1">
          <mxGeometry x="80" y="170" width="360" height="90" as="geometry" />
        </mxCell>
        <mxCell id="Hv3OvngBfir_r2vrPVsW-2" value="&lt;u&gt;A1&lt;/u&gt;" style="rounded=0;whiteSpace=wrap;html=1;" vertex="1" parent="Hv3OvngBfir_r2vrPVsW-1">
          <mxGeometry y="30" width="120" height="60" as="geometry" />
        </mxCell>
        <mxCell id="Hv3OvngBfir_r2vrPVsW-3" value="A3" style="rounded=0;whiteSpace=wrap;html=1;" vertex="1" parent="Hv3OvngBfir_r2vrPVsW-1">
          <mxGeometry x="120" y="30" width="120" height="60" as="geometry" />
        </mxCell>
        <mxCell id="Hv3OvngBfir_r2vrPVsW-5" value="E1" style="text;html=1;align=center;verticalAlign=middle;whiteSpace=wrap;rounded=0;" vertex="1" parent="Hv3OvngBfir_r2vrPVsW-1">
          <mxGeometry width="60" height="30" as="geometry" />
        </mxCell>
        <mxCell id="Hv3OvngBfir_r2vrPVsW-19" value="" style="group" vertex="1" connectable="0" parent="1">
          <mxGeometry x="80" y="280" width="360" height="90" as="geometry" />
        </mxCell>
        <mxCell id="Hv3OvngBfir_r2vrPVsW-20" value="&lt;u&gt;A4&lt;/u&gt;" style="rounded=0;whiteSpace=wrap;html=1;" vertex="1" parent="Hv3OvngBfir_r2vrPVsW-19">
          <mxGeometry y="30" width="120" height="60" as="geometry" />
        </mxCell>
        <mxCell id="Hv3OvngBfir_r2vrPVsW-21" value="A6" style="rounded=0;whiteSpace=wrap;html=1;" vertex="1" parent="Hv3OvngBfir_r2vrPVsW-19">
          <mxGeometry x="120" y="30" width="120" height="60" as="geometry" />
        </mxCell>
        <mxCell id="Hv3OvngBfir_r2vrPVsW-23" value="E2" style="text;html=1;align=center;verticalAlign=middle;whiteSpace=wrap;rounded=0;" vertex="1" parent="Hv3OvngBfir_r2vrPVsW-19">
          <mxGeometry width="60" height="30" as="geometry" />
        </mxCell>
        <mxCell id="Hv3OvngBfir_r2vrPVsW-31" value="" style="group" vertex="1" connectable="0" parent="1">
          <mxGeometry x="80" y="495" width="360" height="90" as="geometry" />
        </mxCell>
        <mxCell id="Hv3OvngBfir_r2vrPVsW-32" value="&lt;u&gt;A11&lt;/u&gt;" style="rounded=0;whiteSpace=wrap;html=1;" vertex="1" parent="Hv3OvngBfir_r2vrPVsW-31">
          <mxGeometry y="30" width="120" height="60" as="geometry" />
        </mxCell>
        <mxCell id="Hv3OvngBfir_r2vrPVsW-33" value="A12" style="rounded=0;whiteSpace=wrap;html=1;" vertex="1" parent="Hv3OvngBfir_r2vrPVsW-31">
          <mxGeometry x="120" y="30" width="120" height="60" as="geometry" />
        </mxCell>
        <mxCell id="Hv3OvngBfir_r2vrPVsW-35" value="E4" style="text;html=1;align=center;verticalAlign=middle;whiteSpace=wrap;rounded=0;" vertex="1" parent="Hv3OvngBfir_r2vrPVsW-31">
          <mxGeometry width="60" height="30" as="geometry" />
        </mxCell>
        <mxCell id="Hv3OvngBfir_r2vrPVsW-39" value="" style="group" vertex="1" connectable="0" parent="1">
          <mxGeometry x="80" y="600" width="360" height="170" as="geometry" />
        </mxCell>
        <mxCell id="Hv3OvngBfir_r2vrPVsW-36" value="&lt;u&gt;A13&lt;/u&gt;" style="rounded=0;whiteSpace=wrap;html=1;" vertex="1" parent="Hv3OvngBfir_r2vrPVsW-39">
          <mxGeometry y="30" width="120" height="60" as="geometry" />
        </mxCell>
        <mxCell id="Hv3OvngBfir_r2vrPVsW-37" value="A14" style="rounded=0;whiteSpace=wrap;html=1;" vertex="1" parent="Hv3OvngBfir_r2vrPVsW-39">
          <mxGeometry x="120" y="30" width="120" height="60" as="geometry" />
        </mxCell>
        <mxCell id="Hv3OvngBfir_r2vrPVsW-38" value="E5" style="text;html=1;align=center;verticalAlign=middle;whiteSpace=wrap;rounded=0;" vertex="1" parent="Hv3OvngBfir_r2vrPVsW-39">
          <mxGeometry width="60" height="30" as="geometry" />
        </mxCell>
        <mxCell id="Hv3OvngBfir_r2vrPVsW-47" value="" style="group" vertex="1" connectable="0" parent="Hv3OvngBfir_r2vrPVsW-39">
          <mxGeometry y="110" width="360" height="90" as="geometry" />
        </mxCell>
        <mxCell id="Hv3OvngBfir_r2vrPVsW-48" value="&lt;u&gt;A4&lt;/u&gt;" style="rounded=0;whiteSpace=wrap;html=1;" vertex="1" parent="Hv3OvngBfir_r2vrPVsW-47">
          <mxGeometry y="30" width="120" height="60" as="geometry" />
        </mxCell>
        <mxCell id="Hv3OvngBfir_r2vrPVsW-49" value="&lt;u&gt;A11&lt;/u&gt;" style="rounded=0;whiteSpace=wrap;html=1;" vertex="1" parent="Hv3OvngBfir_r2vrPVsW-47">
          <mxGeometry x="120" y="30" width="120" height="60" as="geometry" />
        </mxCell>
        <mxCell id="Hv3OvngBfir_r2vrPVsW-51" value="R4" style="text;html=1;align=center;verticalAlign=middle;whiteSpace=wrap;rounded=0;" vertex="1" parent="Hv3OvngBfir_r2vrPVsW-47">
          <mxGeometry width="60" height="30" as="geometry" />
        </mxCell>
        <mxCell id="Hv3OvngBfir_r2vrPVsW-42" style="edgeStyle=orthogonalEdgeStyle;rounded=0;orthogonalLoop=1;jettySize=auto;html=1;entryX=0;entryY=0.5;entryDx=0;entryDy=0;exitX=0;exitY=0.5;exitDx=0;exitDy=0;" edge="1" parent="1" source="Hv3OvngBfir_r2vrPVsW-25" target="Hv3OvngBfir_r2vrPVsW-2">
          <mxGeometry relative="1" as="geometry">
            <mxPoint x="80" y="450" as="sourcePoint" />
            <mxPoint x="20" y="260" as="targetPoint" />
          </mxGeometry>
        </mxCell>
        <mxCell id="Hv3OvngBfir_r2vrPVsW-41" value="" style="group" connectable="0" vertex="1" parent="1">
          <mxGeometry x="80" y="390" width="600" height="90" as="geometry" />
        </mxCell>
        <mxCell id="Hv3OvngBfir_r2vrPVsW-30" value="" style="group" connectable="0" vertex="1" parent="Hv3OvngBfir_r2vrPVsW-41">
          <mxGeometry width="480" height="90" as="geometry" />
        </mxCell>
        <mxCell id="Hv3OvngBfir_r2vrPVsW-24" value="" style="group" connectable="0" vertex="1" parent="Hv3OvngBfir_r2vrPVsW-30">
          <mxGeometry width="360" height="90" as="geometry" />
        </mxCell>
        <mxCell id="Hv3OvngBfir_r2vrPVsW-26" value="A8" style="rounded=0;whiteSpace=wrap;html=1;" vertex="1" parent="Hv3OvngBfir_r2vrPVsW-24">
          <mxGeometry x="120" y="30" width="120" height="60" as="geometry" />
        </mxCell>
        <mxCell id="Hv3OvngBfir_r2vrPVsW-44" style="edgeStyle=orthogonalEdgeStyle;rounded=0;orthogonalLoop=1;jettySize=auto;html=1;entryX=0.5;entryY=0;entryDx=0;entryDy=0;exitX=0.5;exitY=1;exitDx=0;exitDy=0;" edge="1" parent="1" source="Hv3OvngBfir_r2vrPVsW-43" target="Hv3OvngBfir_r2vrPVsW-32">
          <mxGeometry relative="1" as="geometry" />
        </mxCell>
        <mxCell id="Hv3OvngBfir_r2vrPVsW-43" value="&lt;u&gt;A11&lt;/u&gt;" style="rounded=0;whiteSpace=wrap;html=1;" vertex="1" parent="1">
          <mxGeometry x="560" y="420" width="120" height="60" as="geometry" />
        </mxCell>
        <mxCell id="Hv3OvngBfir_r2vrPVsW-53" style="edgeStyle=orthogonalEdgeStyle;rounded=0;orthogonalLoop=1;jettySize=auto;html=1;entryX=0.5;entryY=1;entryDx=0;entryDy=0;exitX=0.5;exitY=0;exitDx=0;exitDy=0;" edge="1" parent="1" source="Hv3OvngBfir_r2vrPVsW-46" target="Hv3OvngBfir_r2vrPVsW-20">
          <mxGeometry relative="1" as="geometry">
            <Array as="points">
              <mxPoint x="380" y="610" />
              <mxPoint x="820" y="610" />
              <mxPoint x="820" y="400" />
              <mxPoint x="140" y="400" />
            </Array>
          </mxGeometry>
        </mxCell>
        <mxCell id="Hv3OvngBfir_r2vrPVsW-46" value="&lt;u&gt;A4&lt;/u&gt;" style="rounded=0;whiteSpace=wrap;html=1;" vertex="1" parent="1">
          <mxGeometry x="320" y="630" width="120" height="60" as="geometry" />
        </mxCell>
        <mxCell id="Hv3OvngBfir_r2vrPVsW-54" value="" style="group" vertex="1" connectable="0" parent="1">
          <mxGeometry x="80" y="930" width="360" height="90" as="geometry" />
        </mxCell>
        <mxCell id="Hv3OvngBfir_r2vrPVsW-55" value="&lt;u&gt;A1&lt;/u&gt;" style="rounded=0;whiteSpace=wrap;html=1;" vertex="1" parent="Hv3OvngBfir_r2vrPVsW-54">
          <mxGeometry y="30" width="120" height="60" as="geometry" />
        </mxCell>
        <mxCell id="Hv3OvngBfir_r2vrPVsW-56" value="&lt;u&gt;A2&lt;/u&gt;" style="rounded=0;whiteSpace=wrap;html=1;" vertex="1" parent="Hv3OvngBfir_r2vrPVsW-54">
          <mxGeometry x="120" y="30" width="120" height="60" as="geometry" />
        </mxCell>
        <mxCell id="Hv3OvngBfir_r2vrPVsW-58" value="A2" style="text;html=1;align=center;verticalAlign=middle;whiteSpace=wrap;rounded=0;" vertex="1" parent="Hv3OvngBfir_r2vrPVsW-54">
          <mxGeometry width="60" height="30" as="geometry" />
        </mxCell>
        <mxCell id="Hv3OvngBfir_r2vrPVsW-61" value="" style="group" vertex="1" connectable="0" parent="1">
          <mxGeometry x="80" y="820" width="360" height="90" as="geometry" />
        </mxCell>
        <mxCell id="Hv3OvngBfir_r2vrPVsW-62" value="&lt;u&gt;A1&lt;/u&gt;" style="rounded=0;whiteSpace=wrap;html=1;" vertex="1" parent="Hv3OvngBfir_r2vrPVsW-61">
          <mxGeometry y="30" width="120" height="60" as="geometry" />
        </mxCell>
        <mxCell id="Hv3OvngBfir_r2vrPVsW-63" value="&lt;u&gt;A4&lt;/u&gt;" style="rounded=0;whiteSpace=wrap;html=1;" vertex="1" parent="Hv3OvngBfir_r2vrPVsW-61">
          <mxGeometry x="120" y="30" width="120" height="60" as="geometry" />
        </mxCell>
        <mxCell id="Hv3OvngBfir_r2vrPVsW-64" value="A15" style="rounded=0;whiteSpace=wrap;html=1;" vertex="1" parent="Hv3OvngBfir_r2vrPVsW-61">
          <mxGeometry x="240" y="30" width="120" height="60" as="geometry" />
        </mxCell>
        <mxCell id="Hv3OvngBfir_r2vrPVsW-65" value="R1" style="text;html=1;align=center;verticalAlign=middle;whiteSpace=wrap;rounded=0;" vertex="1" parent="Hv3OvngBfir_r2vrPVsW-61">
          <mxGeometry width="60" height="30" as="geometry" />
        </mxCell>
        <mxCell id="Hv3OvngBfir_r2vrPVsW-40" value="&lt;u&gt;A1&lt;/u&gt;" style="rounded=0;whiteSpace=wrap;html=1;" vertex="1" parent="1">
          <mxGeometry x="440" y="420" width="120" height="60" as="geometry" />
        </mxCell>
        <mxCell id="Hv3OvngBfir_r2vrPVsW-29" value="A10" style="rounded=0;whiteSpace=wrap;html=1;" vertex="1" parent="1">
          <mxGeometry x="320" y="420" width="120" height="60" as="geometry" />
        </mxCell>
        <mxCell id="Hv3OvngBfir_r2vrPVsW-25" value="&lt;u&gt;A7&lt;/u&gt;" style="rounded=0;whiteSpace=wrap;html=1;" vertex="1" parent="1">
          <mxGeometry x="80" y="420" width="120" height="60" as="geometry" />
        </mxCell>
        <mxCell id="Hv3OvngBfir_r2vrPVsW-27" value="A9&lt;span style=&quot;color: rgba(0, 0, 0, 0); font-family: monospace; font-size: 0px; text-align: start; text-wrap: nowrap;&quot;&gt;%3CmxGraphModel%3E%3Croot%3E%3CmxCell%20id%3D%220%22%2F%3E%3CmxCell%20id%3D%221%22%20parent%3D%220%22%2F%3E%3CmxCell%20id%3D%222%22%20value%3D%22%22%20style%3D%22group%22%20vertex%3D%221%22%20connectable%3D%220%22%20parent%3D%221%22%3E%3CmxGeometry%20x%3D%2280%22%20y%3D%22170%22%20width%3D%22360%22%20height%3D%2290%22%20as%3D%22geometry%22%2F%3E%3C%2FmxCell%3E%3CmxCell%20id%3D%223%22%20value%3D%22%26lt%3Bu%26gt%3BA1%26lt%3B%2Fu%26gt%3B%22%20style%3D%22rounded%3D0%3BwhiteSpace%3Dwrap%3Bhtml%3D1%3B%22%20vertex%3D%221%22%20parent%3D%222%22%3E%3CmxGeometry%20y%3D%2230%22%20width%3D%22120%22%20height%3D%2260%22%20as%3D%22geometry%22%2F%3E%3C%2FmxCell%3E%3CmxCell%20id%3D%224%22%20value%3D%22A2%22%20style%3D%22rounded%3D0%3BwhiteSpace%3Dwrap%3Bhtml%3D1%3B%22%20vertex%3D%221%22%20parent%3D%222%22%3E%3CmxGeometry%20x%3D%22120%22%20y%3D%2230%22%20width%3D%22120%22%20height%3D%2260%22%20as%3D%22geometry%22%2F%3E%3C%2FmxCell%3E%3CmxCell%20id%3D%225%22%20value%3D%22A3%22%20style%3D%22rounded%3D0%3BwhiteSpace%3Dwrap%3Bhtml%3D1%3B%22%20vertex%3D%221%22%20parent%3D%222%22%3E%3CmxGeometry%20x%3D%22240%22%20y%3D%2230%22%20width%3D%22120%22%20height%3D%2260%22%20as%3D%22geometry%22%2F%3E%3C%2FmxCell%3E%3CmxCell%20id%3D%226%22%20value%3D%22E1%22%20style%3D%22text%3Bhtml%3D1%3Balign%3Dcenter%3BverticalAlign%3Dmiddle%3BwhiteSpace%3Dwrap%3Brounded%3D0%3B%22%20vertex%3D%221%22%20parent%3D%222%22%3E%3CmxGeometry%20width%3D%2260%22%20height%3D%2230%22%20as%3D%22geometry%22%2F%3E%3C%2FmxCell%3E%3C%2Froot%3E%3C%2FmxGraphModel%3E&lt;/span&gt;" style="rounded=0;whiteSpace=wrap;html=1;" vertex="1" parent="1">
          <mxGeometry x="200" y="420" width="120" height="60" as="geometry" />
        </mxCell>
        <mxCell id="Hv3OvngBfir_r2vrPVsW-28" value="E3" style="text;html=1;align=center;verticalAlign=middle;whiteSpace=wrap;rounded=0;" vertex="1" parent="1">
          <mxGeometry x="80" y="390" width="60" height="30" as="geometry" />
        </mxCell>
      </root>
    </mxGraphModel>
  </diagram>
</mxfile>
